<?xml version="1.0" standalone="no"?>
<!DOCTYPE svg PUBLIC "-//W3C//DTD SVG 20010904//EN"
 "http://www.w3.org/TR/2001/REC-SVG-20010904/DTD/svg10.dtd">
<svg version="1.0" xmlns="http://www.w3.org/2000/svg"
 width="1280.000000pt" height="744.000000pt" viewBox="0 0 1280.000000 744.000000"
 preserveAspectRatio="xMidYMid meet">
<metadata>
Created by potrace 1.15, written by Peter Selinger 2001-2017
</metadata>
<g transform="translate(0.000000,744.000000) scale(0.100000,-0.100000)"
fill="#000000" stroke="none">
<path d="M4565 7330 c-11 -4 -31 -20 -45 -35 -48 -51 -37 -91 93 -350 441
-880 654 -1710 699 -2720 10 -233 2 -688 -16 -865 -3 -32 -106 -313 -112 -307
-2 1 6 183 16 402 32 650 26 799 -34 931 -27 59 -72 94 -119 94 -95 0 -199
-123 -256 -301 -11 -35 -68 -343 -126 -683 -58 -341 -107 -622 -109 -625 -2
-3 -16 -58 -30 -121 -66 -296 -50 -511 51 -669 71 -112 259 -278 390 -344 l51
-26 -14 -63 c-56 -239 -197 -718 -335 -1137 -85 -255 -95 -311 -64 -357 9 -14
33 -33 53 -41 32 -13 42 -14 77 -2 23 8 48 27 61 46 46 68 318 937 414 1323
12 47 25 101 31 122 l9 36 183 -1 c260 -1 390 22 817 144 301 87 540 185 685
282 104 70 318 289 397 407 39 58 85 117 103 132 l32 27 7 -92 c97 -1283 917
-2303 1964 -2442 822 -110 1612 347 2050 1185 204 390 307 794 327 1290 l7
155 59 -57 c199 -192 478 -187 677 10 104 105 179 246 218 417 28 120 26 349
-5 470 -48 192 -167 380 -290 463 -206 137 -438 114 -613 -60 l-57 -57 5 32
c3 18 10 59 17 92 14 70 16 480 3 510 -4 11 -7 49 -6 84 3 108 -11 260 -24
255 -8 -3 -10 27 -8 106 3 86 0 110 -10 110 -10 0 -12 16 -10 61 4 59 3 62
-18 56 -17 -4 -20 -2 -15 11 4 9 10 91 13 181 l5 163 -22 -7 c-19 -6 -21 -3
-21 29 l0 36 -32 -20 c-40 -24 -48 -25 -48 -4 0 18 -23 44 -40 44 -6 0 -13 13
-16 30 -6 25 -9 28 -25 19 -16 -8 -19 -6 -19 16 0 22 -9 30 -32 26 -5 0 -8 11
-8 25 0 19 -4 25 -15 20 -9 -3 -15 0 -15 8 0 9 -7 12 -20 9 -17 -5 -20 0 -20
26 l0 32 -30 -16 c-16 -9 -30 -13 -30 -10 0 3 -22 -6 -50 -20 -48 -25 -50 -25
-50 -5 0 25 0 25 -60 -5 l-50 -25 0 29 c0 20 -6 30 -20 34 -14 3 -20 14 -20
31 0 22 -3 25 -17 18 -10 -5 -30 -12 -45 -16 -26 -6 -28 -4 -28 23 0 27 -2 29
-40 27 -33 -2 -40 1 -40 16 0 12 -6 18 -17 16 -13 -2 -19 5 -21 25 -4 30 -12
33 -42 15 -17 -11 -22 -10 -29 1 -5 7 -14 10 -20 7 -7 -5 -11 2 -11 20 0 21
-4 25 -20 21 -17 -4 -20 0 -20 30 l0 35 -44 -26 c-54 -31 -56 -32 -56 -6 0 20
-1 20 -30 5 -29 -15 -30 -15 -36 10 -7 29 -12 30 -38 10 -28 -21 -46 -19 -46
5 0 19 -6 17 -80 -20 -84 -42 -95 -46 -85 -30 9 14 -5 12 -35 -5 -36 -21 -40
-19 -40 21 0 28 -3 35 -15 30 -11 -4 -15 1 -15 19 0 38 -17 39 -77 5 -31 -18
-69 -33 -84 -35 -26 -4 -29 -1 -29 25 0 17 -2 30 -5 30 -3 0 -32 -13 -64 -30
l-59 -29 -6 34 -7 34 -82 -44 c-48 -26 -83 -51 -85 -62 -7 -35 -22 -38 -22 -4
0 24 -4 32 -14 28 -9 -4 -16 4 -20 25 -4 21 -10 29 -21 24 -11 -4 -15 2 -15
20 l0 26 -65 -36 c-48 -26 -65 -32 -65 -21 0 20 -8 19 -59 -10 -52 -30 -51
-30 -51 -4 0 20 -1 20 -46 -5 -60 -34 -84 -34 -84 -1 0 14 -4 25 -8 25 -4 0
-38 -16 -75 -36 -63 -33 -94 -39 -108 -21 -4 5 -20 2 -37 -7 -42 -22 -52 -20
-52 9 0 31 1 31 -60 0 l-50 -25 0 30 c0 16 -3 30 -6 30 -10 0 -157 -82 -184
-103 -25 -19 -25 -19 -31 5 -3 14 -11 22 -22 20 -13 -2 -17 5 -17 28 0 16 -2
30 -5 30 -8 0 -159 -82 -165 -90 -3 -3 -17 -13 -32 -23 -24 -15 -28 -15 -28
-2 0 20 -19 19 -55 -5 -39 -26 -45 -25 -45 5 0 25 0 25 -30 10 -30 -15 -30
-15 -30 10 l0 26 -88 -46 c-68 -36 -88 -51 -88 -67 1 -16 -20 -31 -94 -69 -52
-27 -99 -55 -105 -62 -5 -7 -25 -22 -43 -33 -25 -14 -35 -16 -40 -7 -6 9 -32
0 -94 -32 l-86 -45 5 -44 c5 -41 2 -48 -27 -77 -27 -28 -31 -37 -25 -66 4 -25
2 -35 -10 -40 -13 -4 -15 -14 -10 -41 5 -28 3 -39 -12 -51 -18 -15 -19 -27
-12 -226 4 -124 3 -211 -2 -213 -5 -2 -9 -10 -9 -17 0 -8 -8 -16 -18 -19 -15
-5 -17 -22 -18 -146 l-2 -141 -29 -27 -28 -28 5 -185 c5 -166 8 -188 27 -214
27 -39 38 -92 23 -110 -10 -12 -17 -11 -44 9 -110 83 -258 107 -383 62 l-43
-15 0 62 c0 106 -47 153 -128 128 -55 -16 -163 -102 -245 -194 -39 -45 -229
-297 -422 -559 -192 -263 -350 -476 -351 -475 -3 2 13 60 166 617 67 245 131
486 141 535 50 242 28 463 -53 519 -37 26 -95 20 -149 -15 -108 -69 -217 -241
-333 -528 -75 -183 -71 -184 -73 27 -11 841 -218 1761 -578 2572 -64 145 -219
454 -256 511 -41 65 -100 92 -154 69z m2065 -4197 c0 -88 89 -314 160 -409
l39 -52 -27 -10 c-15 -6 -135 -51 -266 -101 -132 -50 -241 -90 -242 -88 -5 5
321 686 329 687 4 0 7 -12 7 -27z"/>
<path d="M3394 6920 c-37 -15 -74 -68 -74 -107 0 -22 25 -91 64 -182 279 -631
448 -1256 515 -1901 36 -348 39 -870 6 -1230 -41 -456 -130 -942 -259 -1415
-85 -314 -127 -443 -310 -960 -25 -71 -46 -142 -46 -156 0 -66 80 -126 144
-108 64 19 78 43 174 310 326 904 503 1712 553 2524 15 239 6 772 -15 995 -69
708 -239 1354 -528 2010 -65 148 -94 192 -138 215 -32 17 -55 18 -86 5z"/>
<path d="M2055 6250 c-44 -18 -70 -59 -69 -109 0 -39 12 -69 67 -168 268 -483
457 -988 541 -1446 79 -425 80 -871 5 -1267 -79 -415 -243 -840 -471 -1225
-36 -60 -73 -124 -82 -142 -47 -93 21 -197 118 -179 46 9 88 58 171 197 293
493 476 1022 541 1569 24 198 24 589 0 795 -53 456 -180 906 -386 1365 -66
149 -230 467 -276 535 -47 71 -104 98 -159 75z"/>
<path d="M1063 5776 c-17 -8 -39 -28 -47 -45 -28 -54 -20 -91 50 -225 390
-749 458 -1479 217 -2311 -43 -149 -124 -372 -193 -530 -115 -265 -122 -286
-116 -323 6 -42 48 -89 86 -97 34 -7 87 14 117 46 26 29 114 219 193 418 358
903 390 1706 99 2486 -92 247 -236 528 -289 567 -35 25 -80 30 -117 14z"/>
<path d="M163 5108 c-11 -5 -29 -25 -39 -43 -27 -50 -14 -100 51 -207 172
-282 244 -534 232 -807 -11 -238 -74 -435 -217 -671 -34 -57 -69 -119 -77
-138 -31 -76 21 -157 101 -157 60 0 90 24 157 128 183 281 279 588 279 889 0
209 -35 378 -120 590 -57 140 -169 337 -222 390 -32 32 -44 38 -80 37 -24 0
-53 -5 -65 -11z"/>
</g>
</svg>
