<svg xmlns="http://www.w3.org/2000/svg" viewBox="0 0 500 500"><g id="freepik--Shapes--inject-2"><path d="M392.42,218c-12.84,0-25.51-2.61-38.37-1.46-16.66,1.5-32,9.24-47.38,15.79-14.44,6.15-29.38,11.38-44.9,13.65-27.84,4.08-56.45-2.95-76.92-22.66-17.11-16.49-14.81-40.25-21.3-63.11-4.4-15.52-13.6-20-27-19.91-22.87.13-35.25,18-41.85,31.31a133.18,133.18,0,0,0-13,42.19,141.6,141.6,0,0,0-1.36,20.89c.14,22.08,4.29,43.71,14.35,63.36a121.18,121.18,0,0,0,66.71,58.79A172.53,172.53,0,0,0,199.92,366c25.77,3,52.43-.14,76.09-11.08,43.07-19.91,71.35-61.73,109-90.67,6.39-4.92,13.11-9.51,18.69-15.33s15-18.24,8-25.93C407,217.9,399.24,218,392.42,218ZM72.19,226.34c.33,42.3,8.2,66.57,24.89,90.2C73.5,305.13,61.53,262.56,72.19,226.34ZM454.43,104.09c-1.29-17-7.9-33.81-19.22-46.46-9-10.07-15.86-16.16-31.32-24.12A100.09,100.09,0,0,0,363.3,23.06c-9.46-.4-19.06.75-27.27,5.72a35.67,35.67,0,0,0-15.32,19c-2.58,7.74-2.38,16.14-4.39,24.05-.86,3.4-2.19,6.79-4.68,9.26a24.8,24.8,0,0,1-5.5,3.76c-4.38,2.46-10.62,4.56-13.43,8.87a15.48,15.48,0,0,0-2,13.46c1.61,4.54,5.58,8.28,9.66,10.67s8.95,4,11.79,8a11.72,11.72,0,0,1-.93,14.29,14.86,14.86,0,0,0,6.4-3.72c2.89-3.48,2.67-8.64.48-12.62-2-3.68-5.39-6.41-8-9.67a5.56,5.56,0,0,1-1.31-2.37,3.94,3.94,0,0,1,1.46-3.63,7.7,7.7,0,0,1,3.76-1.52c4.36-.7,8.9.56,13.2-.44a13.06,13.06,0,0,0,8.51-6.64c1-2,1.5-4.18,2.33-6.23a16.88,16.88,0,0,1,9.33-9.48c5.88-2.24,13,.1,16.88,4.9,6.8,8.42,5.16,19.17-.17,27.84-6.25,10.15-16.19,17.83-21.35,28.58-7.31,15.23-3.25,36.27,10,46.77a54.27,54.27,0,0,0,39.13,11.28c18.4-2,34.76-13.6,46-28.31A81.64,81.64,0,0,0,450,150C455.37,130.13,455.75,121.47,454.43,104.09ZM407,27.05C420.58,32,450.42,53,457.84,85.94,461.29,59,440.8,31.44,407,27.05ZM104.93,134.79c5-.27,8.48-2.48,12.93-4.27a64.67,64.67,0,0,1,14-3.89c12.73-2,27.12-.68,36-11.84,6.62-8.38,7.17-20.51-2-27.25-19.64-14.38-49.41-.43-64.11,15.32a44.11,44.11,0,0,0-5.29,6.74,28,28,0,0,0-2.52,5.05C90.37,124.06,92.89,135.46,104.93,134.79Zm276,156.56c-4.78,2.5-8.54,6.53-12.21,10.48L354.1,317.6a349.65,349.65,0,0,1-30.77,29.34c-1.12.95-2.36,2.43-1.61,3.69,2,3.38,11.39,3.5,14.65,2.86,6.17-1.23,12-4,17.68-6.63,14.9-7,27.83-18.26,37.68-31.37,3.67-4.89,6.83-12.05,6.69-18.25C398.2,287.69,387.74,287.78,380.92,291.35Z" style="fill:#004F4F;opacity:0.25"></path></g><g id="freepik--Chartacter--inject-2"><g id="freepik--chartacter--inject-2"><g id="freepik--Bottom--inject-2"><polygon points="257.46 410.47 264.3 408.03 262.04 403.7 257.84 407.39 257.46 410.47"></polygon><path d="M250.31,399s-.25,4.17-.31,5.48,6,5.37,7.46,6l.38-3.08c1.28,1.2,2.06,2.72,3.46,5,1.16,1.87,2.65,5.41,5.84,7.81,4.73,3.56,12.08,5.35,19.57,5.57s11.77-1.51,13.89-3,2.79-3.3,2.25-5.08S250.31,399,250.31,399Z" style="fill:#263238"></path><path d="M270.27,384.63l.08-2.42c1.38,0,1.57,3.45,3.59,6.52a63.35,63.35,0,0,0,10.61,12.54c7.63,6.43,14.42,10.46,17.83,13.36,4.55,3.87-3.38,10.1-15.61,9.51-6.07-.29-16.86-3.09-19.91-6.43s-4.93-8.54-7.37-11-7.65-4.85-9.18-7.79c-.84-1.62-.42-5.41.06-8.63.44-3,.51-7.49,2.3-7.13l.13,1.52c.74,1.29,2.43,3.42,7.33,4.17C262.58,389.25,269.86,389.42,270.27,384.63Z" style="fill:#37474f"></path><path d="M264.06,389c2.33-.2,4.84-.93,5.81-2.9,0,0,0,0,0-.07a5.31,5.31,0,0,0,1.6,4.65c2.2,2.38,16.1,19.16,16.1,19.16S274.68,396,272.2,393.38c-3.66-3.86-4.82-4.3-8.15-4.4Z" style="opacity:0.15"></path><path d="M267.13,393.43a.74.74,0,0,1-.82.62.7.7,0,0,1-.66-.77.74.74,0,0,1,.82-.62A.71.71,0,0,1,267.13,393.43Z" style="opacity:0.15"></path><path d="M270.76,397.14a.74.74,0,0,1-.82.62.72.72,0,0,1-.67-.77.74.74,0,0,1,.82-.62A.71.71,0,0,1,270.76,397.14Z" style="opacity:0.15"></path><path d="M274.39,400.85a.75.75,0,0,1-.83.62.71.71,0,0,1-.66-.77.74.74,0,0,1,.82-.62A.72.72,0,0,1,274.39,400.85Z" style="opacity:0.15"></path><path d="M278,404.56a.74.74,0,0,1-.82.62.71.71,0,0,1-.66-.77.74.74,0,0,1,.82-.62A.7.7,0,0,1,278,404.56Z" style="opacity:0.15"></path><path d="M281.64,408.26a.72.72,0,0,1-.82.62.71.71,0,0,1-.67-.76.73.73,0,0,1,.82-.62A.71.71,0,0,1,281.64,408.26Z" style="opacity:0.15"></path><path d="M266.37,393.64a.34.34,0,0,1-.19-.09.26.26,0,0,1,0-.39,12.66,12.66,0,0,1,8.43-3.16h0a.29.29,0,0,1,.28.29.3.3,0,0,1-.32.27c-4.44-.22-7.94,3-8,3A.38.38,0,0,1,266.37,393.64Z" style="fill:#263238"></path><path d="M270,397.33a.3.3,0,0,1-.2-.08.28.28,0,0,1,0-.4,12.71,12.71,0,0,1,8.43-3.16h0a.3.3,0,0,1,.28.3.29.29,0,0,1-.32.26c-4.44-.22-7.95,3-8,3A.3.3,0,0,1,270,397.33Z" style="fill:#263238"></path><path d="M273.62,401.05a.27.27,0,0,1-.19-.08.27.27,0,0,1,0-.4,12.72,12.72,0,0,1,8.44-3.16h0a.28.28,0,0,1,.28.3.29.29,0,0,1-.32.26c-4.43-.22-7.94,3-8,3A.29.29,0,0,1,273.62,401.05Z" style="fill:#263238"></path><path d="M277.25,404.76a.32.32,0,0,1-.2-.08.28.28,0,0,1,0-.4,12.71,12.71,0,0,1,8.43-3.16h0a.29.29,0,0,1,.28.3.29.29,0,0,1-.32.26c-4.43-.22-7.95,3-8,3A.29.29,0,0,1,277.25,404.76Z" style="fill:#263238"></path><path d="M280.87,408.47a.28.28,0,0,1-.19-.48,12.72,12.72,0,0,1,8.44-3.16h0a.28.28,0,1,1,0,.56c-4.44-.22-7.95,3-8,3A.31.31,0,0,1,280.87,408.47Z" style="fill:#263238"></path><path d="M201.43,430.62c-1.05,5.45-2.42,9-4.92,12s-7,3.33-10.32,2.68a13.91,13.91,0,0,1-11.08-10.22c-1.08-3.77-.34-8.08,1.22-13.08Z" style="fill:#263238"></path><path d="M188.41,388.7c-1.65-.06-3.08,7.26-5,14.54-2,7.81-5.18,11.95-6.71,17.2-2.11,7.27-2,10.66.23,15.46s13.71,10.64,19.39,4.76c4.62-4.8,5.52-10.59,6.11-18,.6-7.69,1-13.12,2-18.89,1-5.52,2.13-10.86.78-11.63-.21.8-.45,1.82-.67,2.61-.17.61-.72,3.59-1.64,3.52a9.87,9.87,0,0,1,.25-2.09,2.37,2.37,0,0,0-.23-1.85,3.16,3.16,0,0,0-1.72-1,49,49,0,0,0-4.8-1.25c-.81-.16-1.63-.29-2.45-.37a30.13,30.13,0,0,0-4.33-.31,1.48,1.48,0,0,0-1,.65,2.46,2.46,0,0,0-.2.84,5.55,5.55,0,0,1-.4,1.5c-.09.21-.28.46-.51.38s-.23-.29-.21-.47c.11-.9.31-1.54.49-2.57.08-.48.25-1.13.32-1.61S188.32,389.17,188.41,388.7Z" style="fill:#37474f"></path><path d="M182.53,422.94a.54.54,0,0,0,.44.65.59.59,0,0,0,.69-.41.55.55,0,0,0-.44-.65A.58.58,0,0,0,182.53,422.94Z" style="opacity:0.15"></path><path d="M183.73,417.88a.55.55,0,0,0,.44.65.59.59,0,0,0,.69-.41.55.55,0,0,0-.44-.65A.59.59,0,0,0,183.73,417.88Z" style="opacity:0.15"></path><path d="M184.86,413.11a.54.54,0,0,0,.44.64.56.56,0,0,0,.69-.41.53.53,0,0,0-.43-.64A.58.58,0,0,0,184.86,413.11Z" style="opacity:0.15"></path><path d="M186,408.4a.54.54,0,0,0,.43.65.58.58,0,0,0,.69-.41.54.54,0,0,0-.43-.65A.58.58,0,0,0,186,408.4Z" style="opacity:0.15"></path><path d="M198.89,410.61a.54.54,0,0,0,.44.64.57.57,0,0,0,.69-.41.53.53,0,0,0-.43-.64A.58.58,0,0,0,198.89,410.61Z" style="opacity:0.15"></path><path d="M197.77,415.35a.53.53,0,0,0,.44.64.58.58,0,0,0,.69-.41.55.55,0,0,0-.44-.65A.58.58,0,0,0,197.77,415.35Z" style="opacity:0.15"></path><path d="M196.63,420.12a.55.55,0,0,0,.44.65.58.58,0,0,0,.69-.42.54.54,0,0,0-.44-.64A.58.58,0,0,0,196.63,420.12Z" style="opacity:0.15"></path><path d="M195.43,425.18a.54.54,0,0,0,.44.65.59.59,0,0,0,.69-.41.55.55,0,0,0-.44-.65A.59.59,0,0,0,195.43,425.18Z" style="opacity:0.15"></path><polygon points="190.28 427.06 199.25 391.82 197.14 391.55 190.28 427.06" style="opacity:0.15"></polygon><path d="M183,423.33h.09c3.9-.36,10.33.72,12.72,2.16a.3.3,0,0,0,.41-.08.26.26,0,0,0-.09-.38c-2.53-1.53-9-2.63-13.1-2.24a.27.27,0,0,0-.26.3A.29.29,0,0,0,183,423.33Z" style="fill:#263238"></path><path d="M184.23,418.27a.29.29,0,0,0,.16,0c3.06-1,9.92.53,12.66,2.17a.29.29,0,0,0,.4-.08.26.26,0,0,0-.09-.38c-2.85-1.71-9.93-3.24-13.16-2.23a.27.27,0,0,0-.18.35A.29.29,0,0,0,184.23,418.27Z" style="fill:#263238"></path><path d="M185.37,413.5a.38.38,0,0,0,.15,0c3.06-1,9.93.53,12.66,2.17a.3.3,0,0,0,.41-.08.26.26,0,0,0-.09-.38c-2.85-1.72-9.93-3.25-13.16-2.23a.26.26,0,0,0-.19.34A.3.3,0,0,0,185.37,413.5Z" style="fill:#263238"></path><path d="M186.49,408.79a.26.26,0,0,0,.15,0c3.06-1,9.93.53,12.66,2.17a.3.3,0,0,0,.41-.08.26.26,0,0,0-.09-.38c-2.85-1.71-9.93-3.24-13.16-2.23a.27.27,0,0,0-.19.35A.31.31,0,0,0,186.49,408.79Z" style="fill:#263238"></path><path d="M197.57,214.58c-.6,7-2,13.65-3.36,28.84-3.52,39.78-3.08,72.88-3.08,72.88-.34,3.45-3.89,18.16-5.67,35.17-1.88,17.94-2.37,49.58-2.37,49.58s8.8,11.3,22.34,4.78c0,0,12.61-56.05,18.19-77.2,5.29-20,13.55-57.94,13.55-57.94l5.63,37.53s-.75,12.94-.34,22c.48,10.53,7.68,61.14,7.68,61.14s14.61,8,25.92-.05c0,0,1.95-69.8,2.27-82.47.62-24.85-3-61.89-4-94Z" style="fill:#263238"></path><path d="M217.08,261.33q-1.52,16.32-3.39,32.61-.91,8.15-1.91,16.29l-1,8.14-.51,4.06c-.16,1.36-.46,2.7-.68,4.05-1.92,10.77-4.87,30.34-7,41.08s-4.32,21.47-6.7,32.17q2.28-16.25,5-32.42c1.8-10.78,4.62-30.36,6.6-41.11.23-1.35.53-2.69.7-4l.53-4.06,1.1-8.12q1.09-8.13,2.27-16.23Q214.44,277.52,217.08,261.33Z"></path><path d="M270.92,258.24c1.22,10.16,1.87,20.36,2.33,30.56s.9,20.44.49,30.64-.55,27.31-1,37.51-.9,20.4-1.56,30.6q-.25-15.33-.1-30.62c.07-10.21.27-27.31.5-37.51l.2-7.65.05-1.91,0-1.89-.05-3.83-.2-15.29-.26-15.3C271.27,268.44,271.1,263.35,270.92,258.24Z"></path><path d="M237.17,270.69l4.75-24.87s13.19-1.79,20-7.46c0,0-4.36,7.49-16.8,10.43l-4.72,22,2.45,37.46Z"></path></g><g id="freepik--Top--inject-2"><path d="M251.26,124.9c9.07,1.24,13.33,2.69,18,9.22,6.07,8.51,18.26,27.85,18.26,27.85L307,166.25l.79,16.17s-23.59.1-30.19-1c-7.69-1.29-10-4.87-12-8.2-8.24-13.72-10.38-18.49-10.38-18.49Z" style="fill:#37474f"></path><path d="M204.16,128.43c-4.39,2-7.6,3.27-12.57,5.69,0,0-6.45,11.23-5.26,22.45,1,9,9.15,17.92,10.46,31.92,1.62,17.3.44,22.8-.67,34.2,0,0,11.72,12.27,42.87,11.76,28.14-.45,35.89-15.82,35.89-15.82-.53-14.21-.43-36.48-2.8-57.33-2.18-19.17-12.56-31.82-20.82-36.4-6.32-.8-14.25-1.83-14.25-1.83Z" style="fill:#455a64"></path><path d="M197.61,96.94c-1.68-5-5.73-15-5.15-19s15.51-20.6,27.63-21.9c7.9-.84,17,13.26,17,13.26s-9-1.21-21,7.1A63.58,63.58,0,0,0,197.61,96.94Z" style="fill:#455a64"></path><path d="M237.05,69.35a52.44,52.44,0,0,0-4.7-6c-7.43.15-16.42,3.62-24.49,10.08a47.3,47.3,0,0,0-13,15.73c1,2.94,2.07,5.8,2.75,7.83A63.58,63.58,0,0,1,216,76.45C228.1,68.14,237.05,69.35,237.05,69.35Z" style="fill:#004F4F"></path><ellipse cx="222.2" cy="89.85" rx="32.21" ry="19.27" transform="translate(-7.42 158.58) rotate(-38.68)" style="fill:#37474f"></ellipse><path d="M244.42,86.07,215,87a16.66,16.66,0,0,1,.68,4.84c0,4.4-4.45,9.32-4.45,9.32l.91,6,1.09,8.69a5.6,5.6,0,0,1-3.51-2.28,45.76,45.76,0,0,1-6.67-12c-.63-1.65-1.22-3.31-1.76-5-.08-.25-.17-.52-.27-.79l.05,0c1.65-12.38,32.45-28.33,40.73-23,.06,0,.1.11.15.16a7.77,7.77,0,0,1,.8,1.12A17.72,17.72,0,0,1,244.42,86.07Z" style="fill:#e0e0e0"></path><path d="M204.42,110.54c4.73,1.76,6.43-2,6.43-2l2.44,17.9c4.78,5.25,13.22,7.68,20.69,9.82,2,.56,3.88,1.9,5.63,2.32.79-5.36-.2-12.64-4.15-15.6l-.41-4.1a26.56,26.56,0,0,0,3.87-.76c3.93-1,6.13-4.44,6.89-8.89,1.13-6.57.82-16.88-2.65-27.54-.68-2.06-1.81-4.27-3.83-5-5-1.9-9.13,2-15.56,5.21-2.66,1.35-9.32,2.48-11.17,1.82,2.58,2.35,3.36,10.48.24,14.12a7.6,7.6,0,0,1-1.5,2.41c-1.33,1.41-2.85-1.75-4.21-2.92a5.06,5.06,0,0,0-7.65,2.57A8.24,8.24,0,0,0,204.42,110.54Z" style="fill:#c8856a"></path><path d="M212.62,96.75c1.68,8.43,4.84,8.47,7.78,7.69,4-1,5.17-3.39,12.31-4.47a17.15,17.15,0,0,1,8.51.55,3.51,3.51,0,0,0,4.25-2.44,12.23,12.23,0,0,0,.14-6.2,68.79,68.79,0,0,1,1.74,14c0,4.08-.93,7.71-2.85,9.91-2.67,3-8.89,5.06-17.14,4.5s-11.77-3.42-13.16-6.1c-4.49-8.68-3.92-13.2-5.23-14.77S212.62,96.75,212.62,96.75Z" style="fill:#e0e0e0"></path><path d="M232.25,102.89c-4.1.52-5.32,1.46-5.09,4.29a7,7,0,0,0,.58,3.28,3.83,3.83,0,0,0,2.61,1.7,13.89,13.89,0,0,0,4.07-.19c1.12-.19,2.75-.24,3.59-1.1a3.25,3.25,0,0,0,.68-1.3c.42-1.25-.05-2.47-.25-3.74C238.06,103.53,236.88,102.29,232.25,102.89Z" style="fill:#c8856a"></path><path d="M223.29,85.87l-4.22,2.35a2.53,2.53,0,0,1,1-3.37A2.35,2.35,0,0,1,223.29,85.87Z" style="fill:#37474f"></path><path d="M241.4,83.63l-4.79-.89a2.33,2.33,0,0,1,2.75-2A2.56,2.56,0,0,1,241.4,83.63Z" style="fill:#37474f"></path><path d="M222.14,93.72a2,2,0,1,0,1.69-2.22A2,2,0,0,0,222.14,93.72Z" style="fill:#263238"></path><path d="M236.64,91.56a2,2,0,1,0,1.69-2.21A1.79,1.79,0,0,0,236.64,91.56Z" style="fill:#263238"></path><path d="M214.77,90.52A3.73,3.73,0,0,0,216,92.11a2.27,2.27,0,0,1,.46.65c.59,1.17,1.31,3.51,2.2,4.7A6.8,6.8,0,0,0,220.25,99c.25.15.48.27.72.4l.41.16a6.57,6.57,0,0,0,1.12.27H223a1.06,1.06,0,0,0,.31,0,4.92,4.92,0,0,0,.93,0,2.76,2.76,0,0,0,.4-.06,2.67,2.67,0,0,0,.48-.08c3.76-.8,4.92-3,5.44-5s-.29-4.66,1.43-5l.17,0c.06,0,.12,0,.17,0,1.34,0,1.72,2.48,2.91,4a7.54,7.54,0,0,0,1.64,1.65l.36.22a1,1,0,0,0,.2.11l.18.11a.87.87,0,0,1,.17.07l.2.08.14.06.1,0a5.71,5.71,0,0,0,1.62.28H240a9.38,9.38,0,0,0,1.87-.21,5.39,5.39,0,0,0,4.55-4.58,34.37,34.37,0,0,0,0-5.18,1.52,1.52,0,0,1,.18-.71,3.45,3.45,0,0,0,.39-2c-.14-.81-.8-1.41-1.29-1.38l-.88.08c-2.82.31-6.46,1-8.48,2.13-2.54,1.45-3.3,2.6-4.81,2.94s-2.86-.39-6-.59c-2.47-.16-6.31.77-9.19,1.7-.31.12-.6.21-.91.31A1.54,1.54,0,0,0,214.77,90.52ZM235,87.69c.34-.93,2.21-2.25,4.15-2.93.44-.15.87-.28,1.26-.37a1.31,1.31,0,0,1,.15,0l.61-.11.16,0,.22,0,.35,0h1a.91.91,0,0,1,.17,0l.2,0a2.79,2.79,0,0,1,.33.06h.06a3.22,3.22,0,0,1,.78.29c.74.45,1,3.09,1,4.46,0,1.07,0,3.37-1.74,4.77a5.38,5.38,0,0,1-6.58-.15h0a.52.52,0,0,1-.1-.11.6.6,0,0,1-.11-.12l-.07,0c-.05-.08-.11-.13-.15-.19a2,2,0,0,1-.17-.23l-.07-.09,0-.07a.47.47,0,0,0-.06-.09.15.15,0,0,1,0-.07,7,7,0,0,1-.49-.91C235.14,90.27,234.61,88.6,235,87.69ZM217.7,90.32c.5-.68,2.09-1.68,5-2a1.39,1.39,0,0,1,.3,0,9.79,9.79,0,0,1,1.33-.06,4.52,4.52,0,0,1,.52,0,9.5,9.5,0,0,1,1.33.14,2.93,2.93,0,0,1,.41.07c.17,0,.31.07.46.11l.09,0a1.21,1.21,0,0,1,.18,0,2.62,2.62,0,0,1,1,.51c.73.67.94,2.41.95,3.94a5.77,5.77,0,0,1-.74,2.88,5.28,5.28,0,0,1-3.76,2.37,4.67,4.67,0,0,1-4.35-1,.91.91,0,0,1-.17-.17A.71.71,0,0,1,220,97a1.92,1.92,0,0,1-.14-.15,1,1,0,0,1-.11-.15.94.94,0,0,1-.1-.1.18.18,0,0,0-.07-.1,1.88,1.88,0,0,1-.12-.18,4.65,4.65,0,0,1-.32-.5h0a2.38,2.38,0,0,1-.17-.31c-.1-.18-.18-.35-.25-.5a.26.26,0,0,0-.05-.09.19.19,0,0,0,0-.09C218.08,93.55,217.18,91.05,217.7,90.32Z" style="fill:#455a64"></path><polygon points="215.35 89.83 206.76 97.01 208.97 99.39 217.46 92.28 215.35 89.83" style="fill:#455a64"></polygon><path d="M218.66,94.8a.19.19,0,0,1,0,.09.26.26,0,0,1,.05.09c.07.15.15.32.25.5a2.38,2.38,0,0,0,.17.31h0a4.65,4.65,0,0,0,.32.5,1.88,1.88,0,0,0,.12.18.18.18,0,0,1,.07.1.94.94,0,0,0,.1.1,1,1,0,0,0,.11.15A1.92,1.92,0,0,0,220,97a.71.71,0,0,0,.15.15.91.91,0,0,0,.17.17,4.67,4.67,0,0,0,4.35,1A5.28,5.28,0,0,0,228.46,96a5.77,5.77,0,0,0,.74-2.88c0-1.53-.22-3.27-.95-3.94a2.62,2.62,0,0,0-1-.51,1.21,1.21,0,0,0-.18,0l-.09,0c-.15,0-.29-.08-.46-.11a2.93,2.93,0,0,0-.41-.07,9.5,9.5,0,0,0-1.33-.14,4.52,4.52,0,0,0-.52,0,9.79,9.79,0,0,0-1.33.06,1.39,1.39,0,0,0-.3,0c-2.86.33-4.45,1.33-5,2S218.08,93.55,218.66,94.8Z" style="fill:#263238"></path><path d="M235.75,91.66a7,7,0,0,0,.49.91.15.15,0,0,0,0,.07.47.47,0,0,1,.06.09l0,.07.07.09a2,2,0,0,0,.17.23c0,.06.1.11.15.19l.07,0a.6.6,0,0,0,.11.12.52.52,0,0,0,.1.11h0a5.38,5.38,0,0,0,6.58.15c1.75-1.4,1.73-3.7,1.74-4.77,0-1.37-.25-4-1-4.46a3.22,3.22,0,0,0-.78-.29h-.06a2.79,2.79,0,0,0-.33-.06l-.2,0a.91.91,0,0,0-.17,0h-1l-.35,0-.22,0-.16,0-.61.11a1.31,1.31,0,0,0-.15,0c-.39.09-.82.22-1.26.37-1.94.68-3.81,2-4.15,2.93S235.14,90.27,235.75,91.66Z" style="fill:#263238"></path><path d="M230.58,94.48l2.13,5.49L239,96.72a30.59,30.59,0,0,0-3.9-5,10.94,10.94,0,0,0-2.93-2.17C230.28,89.5,231,92.47,230.58,94.48Z" style="fill:#af6152"></path><path d="M239.61,138.56c-4.81-3.29-4.63-5-9.2-6.74-2.33-.88-5.83-1.35-10.78-4.24a21,21,0,0,1-7-6.16l-.4-2.67c-1.58.44-2.11,2.88-3.42,5a23.07,23.07,0,0,1-4.66,4.67,41.51,41.51,0,0,0,12.73,11.75c7.84,4.38,12.37,5.5,12.37,5.5s-.87-5.15,1.36-8C232.64,135.05,237.16,139.2,239.61,138.56Z" style="fill:#37474f"></path><path d="M239.61,138.56a20,20,0,0,0-4.27-15.66l-.2-2.92a26.84,26.84,0,0,0,3.2-.71,42.3,42.3,0,0,1,7.9,9,24.06,24.06,0,0,1,3.86,8.76s-4.6-4.1-5.84-4.69S241.51,136.85,239.61,138.56Z" style="fill:#37474f"></path><path d="M297.41,144.57c.71,2.5.62,3.85.95,8.08.31,3.95,1.07,8.49,4.69,16.93s7.26,17.7,8.24,20.54c.78,2.27-1.65,3.46-2.56,1.49-1.64-3.53-8.08-19.75-13.12-32.72-7.66-19.73-15.54-40.3-21.58-50.75-6.56-11.36-15.45-13.6-22.47-13.1s-10.08,3.46-14,7.88l1.13,1.3s1-1.4,4.71-3.65c4.31-2.64,10.49-3.38,16.76,3.38,4.12,4.43,6.22,12.81,10.72,26.41,3.7,11.17,8.64,28.61,17,55.74,4.46,14.45,11.5,37.47,32.39,28.86,12.83-5.29,13.45-18.91,8.64-29-3.92-8.22-8.25-15.41-9.91-20.4s.13-8.56,3.93-11.92Z" style="fill:#004F4F"></path><path d="M297.41,144.57c.71,2.5.62,3.85.95,8.08.31,3.95,1.07,8.49,4.69,16.93s7.26,17.7,8.24,20.54c.78,2.27-1.65,3.46-2.56,1.49-1.64-3.53-8.08-19.75-13.12-32.72-7.66-19.73-15.54-40.3-21.58-50.75-6.56-11.36-15.45-13.6-22.47-13.1s-10.08,3.46-14,7.88l1.13,1.3s1-1.4,4.71-3.65c4.31-2.64,10.49-3.38,16.76,3.38,4.12,4.43,6.22,12.81,10.72,26.41,3.7,11.17,8.64,28.61,17,55.74,4.46,14.45,11.5,37.47,32.39,28.86,12.83-5.29,13.45-18.91,8.64-29-3.92-8.22-8.25-15.41-9.91-20.4s.13-8.56,3.93-11.92Z" style="fill:#fff;opacity:0.25"></path><path d="M268.24,105.31a27.49,27.49,0,0,1,2.9,3.65c3.21,4.78,4.78,10.37,7.52,15.41a3.38,3.38,0,0,0,.65.93c.45.42,1.24.71,1.53,0,.21-.51-.19-1.22-.35-1.69-.49-1.41-1.08-2.79-1.66-4.16-3-7-5.09-12.35-9.65-16.79-3.44-3.36-8.74-7-13.72-7a.92.92,0,0,0-.79,1.49,2.89,2.89,0,0,0,1.33,1c2.32,1.06,4.77,1.82,7,3A21.59,21.59,0,0,1,268.24,105.31Z" style="fill:#fff;opacity:0.35000000000000003"></path><path d="M306.73,158.54a17.31,17.31,0,0,0,2.63,5.51,68.05,68.05,0,0,1,7.26,14.31A50.8,50.8,0,0,1,320,191.18,21.07,21.07,0,0,1,317.44,204,16.28,16.28,0,0,1,308.7,211c-.45.15-1,.4-1,.88,0,.32.3.56.58.74a10.2,10.2,0,0,0,6.41,1.51,14.79,14.79,0,0,0,7.87-3.61,20.8,20.8,0,0,0,5.17-7A18,18,0,0,0,329,200a18.84,18.84,0,0,0-.53-9.65,55.85,55.85,0,0,0-3.83-9c-2.21-4.46-4.85-8.9-6.51-13.59a25.82,25.82,0,0,1-1.31-5.1,15.31,15.31,0,0,1-.16-2.62c0-.72.46-1.49.42-2.17a1.13,1.13,0,0,0-.77-.89,4.13,4.13,0,0,0-1.22-.16,22.09,22.09,0,0,1-7-1.72,1.41,1.41,0,0,0-.8-.14c-.55.12-.75.79-.77,1.35A9,9,0,0,0,306.73,158.54Z" style="fill:#fff;opacity:0.35000000000000003"></path><path d="M282.63,132.76a1.09,1.09,0,0,1-.05-1.71,1.6,1.6,0,0,1,2-.28,1.09,1.09,0,0,1,.06,1.71A1.6,1.6,0,0,1,282.63,132.76Z" style="fill:#004F4F"></path><path d="M284.17,137a1.25,1.25,0,0,1-.06-2,1.85,1.85,0,0,1,2.28-.33,1.25,1.25,0,0,1,.06,2A1.83,1.83,0,0,1,284.17,137Z" style="fill:#004F4F"></path><path d="M285.69,142.3a1.57,1.57,0,0,1-.07-2.46,2.31,2.31,0,0,1,2.85-.41,1.57,1.57,0,0,1,.08,2.46A2.32,2.32,0,0,1,285.69,142.3Z" style="fill:#004F4F"></path><path d="M287.79,148a1.75,1.75,0,0,1-.09-2.75,2.57,2.57,0,0,1,3.2-.46,1.75,1.75,0,0,1,.09,2.75A2.57,2.57,0,0,1,287.79,148Z" style="fill:#004F4F"></path><path d="M289.6,153.16a1.81,1.81,0,0,1-.09-2.82,2.65,2.65,0,0,1,3.28-.47,1.8,1.8,0,0,1,.09,2.82A2.65,2.65,0,0,1,289.6,153.16Z" style="fill:#004F4F"></path><path d="M291.28,158.75a2.09,2.09,0,0,1-.1-3.28,3.07,3.07,0,0,1,3.81-.55,2.1,2.1,0,0,1,.11,3.28A3.08,3.08,0,0,1,291.28,158.75Z" style="fill:#004F4F"></path><path d="M293,165.19a2.54,2.54,0,0,1-.13-4,3.74,3.74,0,0,1,4.61-.66,2.54,2.54,0,0,1,.13,4A3.72,3.72,0,0,1,293,165.19Z" style="fill:#004F4F"></path><path d="M295.73,172.08a2.64,2.64,0,0,1-.13-4.14,3.87,3.87,0,0,1,4.81-.69,2.64,2.64,0,0,1,.14,4.14A3.88,3.88,0,0,1,295.73,172.08Z" style="fill:#004F4F"></path><path d="M298.22,180.13c-1.5-1-1.56-3.08-.15-4.55a4.28,4.28,0,0,1,5.29-.76c1.5,1.05,1.56,3.09.14,4.55A4.25,4.25,0,0,1,298.22,180.13Z" style="fill:#004F4F"></path><path d="M301,189.05c-1.77-1.23-1.84-3.63-.18-5.35a5,5,0,0,1,6.22-.89c1.76,1.23,1.84,3.63.17,5.35A5,5,0,0,1,301,189.05Z" style="fill:#004F4F"></path><g style="opacity:0.15"><path d="M282.63,132.76a1.09,1.09,0,0,1-.05-1.71,1.6,1.6,0,0,1,2-.28,1.09,1.09,0,0,1,.06,1.71A1.6,1.6,0,0,1,282.63,132.76Z"></path><path d="M284.17,137a1.25,1.25,0,0,1-.06-2,1.85,1.85,0,0,1,2.28-.33,1.25,1.25,0,0,1,.06,2A1.83,1.83,0,0,1,284.17,137Z"></path><path d="M285.69,142.3a1.57,1.57,0,0,1-.07-2.46,2.31,2.31,0,0,1,2.85-.41,1.57,1.57,0,0,1,.08,2.46A2.32,2.32,0,0,1,285.69,142.3Z"></path><path d="M287.79,148a1.75,1.75,0,0,1-.09-2.75,2.57,2.57,0,0,1,3.2-.46,1.75,1.75,0,0,1,.09,2.75A2.57,2.57,0,0,1,287.79,148Z"></path><path d="M289.6,153.16a1.81,1.81,0,0,1-.09-2.82,2.65,2.65,0,0,1,3.28-.47,1.8,1.8,0,0,1,.09,2.82A2.65,2.65,0,0,1,289.6,153.16Z"></path><path d="M291.28,158.75a2.09,2.09,0,0,1-.1-3.28,3.07,3.07,0,0,1,3.81-.55,2.1,2.1,0,0,1,.11,3.28A3.08,3.08,0,0,1,291.28,158.75Z"></path><path d="M293,165.19a2.54,2.54,0,0,1-.13-4,3.74,3.74,0,0,1,4.61-.66,2.54,2.54,0,0,1,.13,4A3.72,3.72,0,0,1,293,165.19Z"></path><path d="M295.73,172.08a2.64,2.64,0,0,1-.13-4.14,3.87,3.87,0,0,1,4.81-.69,2.64,2.64,0,0,1,.14,4.14A3.88,3.88,0,0,1,295.73,172.08Z"></path><path d="M298.22,180.13c-1.5-1-1.56-3.08-.15-4.55a4.28,4.28,0,0,1,5.29-.76c1.5,1.05,1.56,3.09.14,4.55A4.25,4.25,0,0,1,298.22,180.13Z"></path><path d="M301,189.05c-1.77-1.23-1.84-3.63-.18-5.35a5,5,0,0,1,6.22-.89c1.76,1.23,1.84,3.63.17,5.35A5,5,0,0,1,301,189.05Z"></path></g><path d="M319.42,154.85c6.76-1.18,8.66-6.4,4.26-11.66s-13.45-8.56-20.2-7.37-8.66,6.4-4.26,11.66S312.67,156,319.42,154.85Z" style="fill:#004F4F"></path><path d="M319.42,154.85c6.76-1.18,8.66-6.4,4.26-11.66s-13.45-8.56-20.2-7.37-8.66,6.4-4.26,11.66S312.67,156,319.42,154.85Z" style="fill:#fff;opacity:0.55"></path><path d="M322.14,143.46c-3.86-4.6-11.74-7.47-17.65-6.45-5.38.94-7.25,4.81-4.62,9a9.31,9.31,0,0,0,.88,1.22c3.85,4.59,11.77,7.48,17.68,6.45a9.17,9.17,0,0,0,1.46-.36C324.58,151.81,325.65,147.65,322.14,143.46Z" style="fill:#004F4F"></path><path d="M322.14,143.46c-3.86-4.6-11.74-7.47-17.65-6.45-5.38.94-7.25,4.81-4.62,9a9.31,9.31,0,0,0,.88,1.22c3.85,4.59,11.77,7.48,17.68,6.45a9.17,9.17,0,0,0,1.46-.36C324.58,151.81,325.65,147.65,322.14,143.46Z" style="fill:#fff;opacity:0.25"></path><path d="M318.29,148.78A16.81,16.81,0,0,0,304,143.56a5.62,5.62,0,0,0-4.13,2.43,9.31,9.31,0,0,0,.88,1.22c3.85,4.59,11.77,7.48,17.68,6.45a9.17,9.17,0,0,0,1.46-.36A5.64,5.64,0,0,0,318.29,148.78Z" style="fill:#004F4F"></path><path d="M233.81,107.49a.64.64,0,0,0,.59.44,8.15,8.15,0,0,0,2.33-1.43,1.45,1.45,0,0,0,.75-.81,1,1,0,0,1,.4-.67,5.14,5.14,0,0,1,.72-.5.64.64,0,0,1,.19-.08c.18,0,.33.14.5.17a.51.51,0,0,0,.54-.48,2,2,0,0,0-.52-1.32,3.86,3.86,0,0,0-.76-.85c-.42-.32-1.31-.35-1.2.41a.57.57,0,0,1,0,.22.38.38,0,0,1-.13.18,5.71,5.71,0,0,1-1,.74.61.61,0,0,1-.29.11c-.14,0-.27-.11-.42-.12a.63.63,0,0,0-.31.12c-.42.25-.83.51-1.24.77a1.27,1.27,0,0,0-.61,1.55A8.66,8.66,0,0,0,233.81,107.49Z" style="fill:#263238"></path><path d="M309.66,190.29a.46.46,0,0,1-.43-.3l-21.69-56.23a.47.47,0,0,1,.87-.33l21.68,56.22a.46.46,0,0,1-.26.6A.35.35,0,0,1,309.66,190.29Z" style="fill:#004F4F"></path><path d="M288.42,172.64a.47.47,0,0,1-.44-.31l-20-56.85a.46.46,0,0,1,.28-.59.47.47,0,0,1,.6.28l20,56.85a.46.46,0,0,1-.28.59Z" style="fill:#004F4F"></path><path d="M290.45,190.73a.48.48,0,0,0-.59-.3l-3.12,1-1.88-6.29,3.15-1a.46.46,0,0,0,.3-.58.47.47,0,0,0-.59-.3l-3.12,1L282.72,178l3.15-1a.46.46,0,1,0-.29-.88l-3.13,1-1.88-6.28,3.16-1a.47.47,0,0,0,.3-.59.47.47,0,0,0-.59-.29l-3.13,1-1.88-6.28,3.16-1a.47.47,0,0,0-.29-.89l-3.14,1-1.88-6.28,3.17-1.05a.45.45,0,0,0,.29-.58.46.46,0,0,0-.58-.3l-3.14,1-1.88-6.28,3.17-1.05a.47.47,0,0,0,.29-.59.46.46,0,0,0-.58-.29l-3.15,1L272,142.15l3.17-1a.47.47,0,0,0,.29-.59.45.45,0,0,0-.58-.29l-3.15,1L269.85,135l3.18-1a.46.46,0,0,0-.29-.88l-3.15,1-1.79-6a.47.47,0,0,0-.58-.31.45.45,0,0,0-.31.58l1.93,6.46h0L271,142s0,0,0,0h0l2.12,7.12s0,0,0,0a0,0,0,0,0,0,0l2.12,7.09s0,.05,0,.07,0,0,0,0l2.11,7.05a.28.28,0,0,0,0,.09l0,0,2.1,7a.34.34,0,0,0,0,.1s0,0,0,.05l2.1,7a.62.62,0,0,0,0,.13l0,0,2.08,7a.77.77,0,0,0,0,.15s0,0,.05.06l2.07,7a.88.88,0,0,0,0,.16s0,0,.06.07l2.62,8.78a.46.46,0,0,0,.41.33.33.33,0,0,0,.17,0,.46.46,0,0,0,.31-.57L287,192.36l3.14-1A.47.47,0,0,0,290.45,190.73Z" style="fill:#004F4F"></path><path d="M285.31,139.35a.46.46,0,0,1-.18-.89l4-1.63a.46.46,0,1,1,.35.86l-4,1.63Z" style="fill:#004F4F"></path><path d="M287.12,144.68a.46.46,0,0,1-.18-.89l4-1.63a.46.46,0,1,1,.35.86l-4,1.63Z" style="fill:#004F4F"></path><path d="M289.21,149.83a.46.46,0,0,1-.43-.29.47.47,0,0,1,.25-.61l4-1.62a.46.46,0,0,1,.61.25.45.45,0,0,1-.26.6l-4,1.63A.33.33,0,0,1,289.21,149.83Z" style="fill:#004F4F"></path><path d="M291,155a.46.46,0,0,1-.18-.89l4-1.63a.47.47,0,0,1,.61.26.46.46,0,0,1-.26.6l-4,1.63A.47.47,0,0,1,291,155Z" style="fill:#004F4F"></path><path d="M293.21,160.5a.46.46,0,0,1-.18-.89l4-1.63a.46.46,0,1,1,.35.86l-4,1.63A.47.47,0,0,1,293.21,160.5Z" style="fill:#004F4F"></path><path d="M295.55,167a.47.47,0,0,1-.17-.9l4-1.62a.45.45,0,0,1,.6.25.46.46,0,0,1-.25.61l-4,1.62A.39.39,0,0,1,295.55,167Z" style="fill:#004F4F"></path><path d="M298.41,174.28A.45.45,0,0,1,298,174a.46.46,0,0,1,.25-.61l4-1.63a.47.47,0,0,1,.61.26.46.46,0,0,1-.26.6l-4,1.63A.51.51,0,0,1,298.41,174.28Z" style="fill:#004F4F"></path><path d="M301.57,182.42a.46.46,0,0,1-.43-.29.45.45,0,0,1,.25-.6l4-1.63a.46.46,0,1,1,.35.86l-4,1.63A.47.47,0,0,1,301.57,182.42Z" style="fill:#004F4F"></path><path d="M234.89,108.33a5.33,5.33,0,0,0-.57-2.82,6.27,6.27,0,0,0-1.84-2.22A5.31,5.31,0,0,0,230,102.1c-.32,0-.27.42-.08.56a12.23,12.23,0,0,1,2.09,1.63,5.65,5.65,0,0,1,1.61,4,17.73,17.73,0,0,1-.32,2.4c0,.13.1.4.27.3A3.34,3.34,0,0,0,234.89,108.33Z" style="fill:#af6152"></path><path d="M288.61,149.54a19.36,19.36,0,0,1,4.39,1.28,1.38,1.38,0,0,1,.5.32c.35.43.05,1.09-.35,1.47a6,6,0,0,1-3.67,1.41c-1.76.17-4.76-.22-6.16,1.2s-1.2,4.6-1.23,6.45c-.14,6.84-.5,6.76-2.94,8.62s-6.45,5.74-11.79,9.78-19.65,15-26,17.63-10.15,2.2-16.62-2.5c-4.19-3-11.83-8.43-20.41-15.75S189.65,168,184.94,158.52s1.17-20.08,6.93-23.91c5.82.89,10.95,4,19.34,13.16s25.71,25.65,25.71,25.65,26.6-9.94,28.71-14.54c2-4.26,2.46-9.43,3.5-14a6.51,6.51,0,0,1,.77-2.15,6.24,6.24,0,0,1,1.58-1.49c2.5-1.87,5.08-3.65,7.69-5.37,2-1.36,4-2.85,6.13-4.07,1-.55,1.73-1.34,2.37-.32a4.19,4.19,0,0,1,0,3.43,12,12,0,0,1-2.17,3.18,9.06,9.06,0,0,1,2.61-.33,31.23,31.23,0,0,1,3.62,0,.91.91,0,0,1,.67.24.85.85,0,0,1,.13.47,3.93,3.93,0,0,1-2.33,3.5,20,20,0,0,1-3.27,1.48,7,7,0,0,0-1.88.85,5.5,5.5,0,0,0-1.21,1.42c-.85,1.28-1.65,2.59-2.38,3.94A19.1,19.1,0,0,1,288.61,149.54Z" style="fill:#c8856a"></path><path d="M285.5,138.11c-2.94.68-4.85,2.68-7,4.65-1,1.05-3.83,3.2-4.5,4.47-.4.6-.78,1.21-1.21,1.8.21-.69.49-1.36.75-2.06.83-2,2.73-3.47,4.24-5,2.08-1.95,4.65-4.08,7.68-3.86Z" style="fill:#af6152"></path><path d="M191.59,134.12A18.12,18.12,0,0,0,181.91,149c-.65,6.83,2.71,13.31,7.39,18.14s22.58,20.27,31.64,26.79,13.24,7.17,16.6,6.18,12.12-5.72,18.86-11,9.23-7.74,9.23-7.74-3.64,0-7.43-4.44-3.84-10.83-3.84-10.83l-16.89,6.55s-22.33-22-27-26.86S199.23,135.57,191.59,134.12Z" style="fill:#37474f"></path><path d="M307.34,179.91l-.29-.71c-.48-1.2-1-2.44-1.51-3.7-.09-.23-.19-.46-.29-.69-.54-1.28-1.07-2.59-1.62-3.87l-.2.15c-1.15.93-2.67,3.27-3.73,4.59s.15,3.15,2.76,1.79l-1.94,2.43c-1.37,1.71-1.13,3.06,1,2.89a3.12,3.12,0,0,0,1.88-.73c-.29.27-1.6,1.57-1.16,2.1,1.3,1.63,2.67,1.23,6.52-.65C308.33,182.38,307.85,181.18,307.34,179.91Zm-4.29-10.33c-.51-1.19-1-2.3-1.36-3.33a8.6,8.6,0,0,0-2,2.5c-.36,1,1.37,1.89,3.43,1Z" style="fill:#c8856a"></path><path d="M305.54,175.5a4.67,4.67,0,0,0-.85.38c-.71.46-1.44,1.1-2.23,1.59a13.72,13.72,0,0,1,1.87-2.11,5.2,5.2,0,0,1,.92-.55C305.35,175,305.45,175.27,305.54,175.5Z" style="fill:#af6152"></path><path d="M307.34,179.91a12.38,12.38,0,0,0-3.87,2.11,6.27,6.27,0,0,1,2.18-2.1,10.3,10.3,0,0,1,1.4-.72Z" style="fill:#af6152"></path></g></g></g></svg>
